<svg xmlns="http://www.w3.org/2000/svg" width="16" height="16"><path d="M 4,7 V 6 L 5,5 H 6 V 4 L 5,3.00001 H 2 L 1,7 2,8 3,9 v 1 l 1,1 v 1 1 l 1,1 V 13 L 6,12 V 11 L 7,10 6,9 5,8 H 4 3 V 7 Z M 8,5 9,6 10,5 h 1 l 1,1 h 1 v 0 l 1,2 V 3 H 10 V 4 H 9 Z M 9,6 8,7 v 1 l 1,1 h 1 l 1,1 v 1 1 l 1,1 1,-1 V 9 L 14,8 13,7 12,6 h -1 -1 z" style="marker:none" overflow="visible" fill="#2e3436" opacity=".5"/><path d="M 8,0 C 3.5935666,0 0,3.5935666 0,8 c 0,4.406433 3.5935666,8 8,8 4.406433,0 8,-3.593567 8,-8 C 16,3.5935667 12.406433,6.2949046e-8 8,0 Z m 0,2 c 3.325553,0 6,2.6744469 6,6 0,3.325553 -2.674447,6 -6,6 C 4.6744469,14 2,11.325553 2,8 2,4.6744469 4.6744469,2 8,2 Z" style="marker:none" overflow="visible" fill="#2e3436"/></svg>
