<svg xmlns="http://www.w3.org/2000/svg" width="16" height="16">
    <path d="M8 .989a7 7 0 0 0-7 7 7 7 0 0 0 7 7 7 7 0 0 0 7-7 7 7 0 0 0-7-7zM7.813 3C9.455 2.908 10.908 4.17 11 5.813c0 1.401-.378 1.922-1.594 2.844-.19.143-.325.25-.375.312-.05.062-.03.033-.03.031.006.529-.473 1-1 1-.53 0-1.008-.471-1-1 0-.502.223-.943.468-1.25a3.82 3.82 0 0 1 .719-.687c.204-.16.46-.385.687-.656.094-.112.13-.308.125-.438v-.031A.988.988 0 0 0 7.938 5c-.564.032-.97.437-.938 1H5c-.092-1.642 1.17-2.907 2.813-3zM8 11a1 1 0 1 1 0 2 1 1 0 0 1 0-2z" style="marker:none" fill="#2e3436"/>
</svg>
