<?xml version="1.0" encoding="UTF-8"?>
<svg height="16px" viewBox="0 0 16 16" width="16px" xmlns="http://www.w3.org/2000/svg" xmlns:xlink="http://www.w3.org/1999/xlink">
    <filter id="a" height="100%" width="100%" x="0%" y="0%">
        <feColorMatrix in="SourceGraphic" type="matrix" values="0 0 0 0 1 0 0 0 0 1 0 0 0 0 1 0 0 0 1 0"/>
    </filter>
    <mask id="b">
        <g filter="url(#a)">
            <rect fill-opacity="0.1" height="16" width="16"/>
        </g>
    </mask>
    <clipPath id="c">
        <rect height="152" width="192"/>
    </clipPath>
    <g clip-path="url(#c)" mask="url(#b)" transform="matrix(1 0 0 1 -168 -16)">
        <path d="m 67 27.992188 c -1.105469 0 -2 0.894531 -2 2 v 45.601562 l -10.550781 -10.550781 c -1.3125 -1.3125 -3.09375 -2.050781 -4.949219 -2.050781 h -7.5 c -1.105469 0 -2 0.894531 -2 2 v 5 c 0 1.859374 0.738281 3.636718 2.050781 4.949218 l 25 25 c 2.71875 2.71875 7.183594 2.71875 9.898438 0 l 25 -25 c 1.3125 -1.3125 2.050781 -3.089844 2.050781 -4.945312 c 0 -0.027344 0 -0.054688 0 -0.082032 v -4.921874 c 0 -1.101563 -0.894531 -2 -2 -2 h -7.5 c -1.855469 0 -3.636719 0.742187 -4.949219 2.054687 l -10.550781 10.546875 v -45.601562 c 0 -1.101563 -0.894531 -2 -2 -2 z m 0 0"/>
    </g>
    <g fill="#bebebe">
        <path d="m 2.1875 2 c -1.199219 0 -2.1992188 0.992188 -2.1992188 2.195312 v 9.605469 c 0.00781255 1.210938 0.9882808 2.191407 2.1992188 2.199219 h 11.601562 c 1.195313 0 2.199219 -0.996094 2.199219 -2.199219 v -9.605469 c -0.011719 -1.210937 -1 -2.195312 -2.203125 -2.195312 c -0.59375 0 -0.785156 0 -0.785156 0 v 2 h 0.789062 c 0.128907 0 0.199219 0.070312 0.199219 0.195312 v 9.605469 c 0 0.125 -0.070312 0.199219 -0.203125 0.199219 h -11.597656 c -0.132812 0 -0.199219 -0.074219 -0.199219 -0.199219 v -9.605469 c 0 -0.125 0.066407 -0.195312 0.199219 -0.195312 h 0.8125 v -2 z m 2.050781 4.109375 c -0.769531 0.726563 -1.25 1.75 -1.25 2.890625 c 0 2.210938 1.789063 4 4 4 h 4 v -4 c 0.089844 -0.652344 -0.046875 -1.261719 -0.324219 -1.8125 l -1.964843 1.933594 c -0.207031 0.203125 -0.492188 0.304687 -0.78125 0.28125 c -0.371094 0.902344 -1.917969 0.792968 -1.917969 -0.402344 c 0 -0.363281 0.160156 -0.617188 0.382812 -0.78125 z m 0 0"/>
        <path d="m 12 3 h -1 c -0.257812 0 -0.53125 0.128906 -0.71875 0.3125 l -1.28125 1.28125 v -4.59375 h -2 v 4.59375 l -1.28125 -1.28125 c -0.191406 -0.183594 -0.460938 -0.3125 -0.71875 -0.3125 h -1 v 1 c 0 0.308594 0.089844 0.550781 0.28125 0.75 l 3.71875 3.65625 l 3.71875 -3.65625 c 0.1875 -0.199219 0.28125 -0.441406 0.28125 -0.75 z m 0 0"/>
    </g>
</svg>
