<?xml version="1.0" encoding="UTF-8" standalone="no"?>
<svg
   width="32"
   height="32"
   viewBox="0 0 32 32"
   version="1.1"
   id="svg522"
   sodipodi:docname="jp-symbol.svg"
   inkscape:version="1.2.1 (9c6d41e410, 2022-07-14, custom)"
   xmlns:inkscape="http://www.inkscape.org/namespaces/inkscape"
   xmlns:sodipodi="http://sodipodi.sourceforge.net/DTD/sodipodi-0.dtd"
   xmlns="http://www.w3.org/2000/svg"
   xmlns:svg="http://www.w3.org/2000/svg">
  <defs
     id="defs526" />
  <sodipodi:namedview
     id="namedview524"
     pagecolor="#ffffff"
     bordercolor="#000000"
     borderopacity="0.25"
     inkscape:showpageshadow="2"
     inkscape:pageopacity="0.17647059"
     inkscape:pagecheckerboard="true"
     inkscape:deskcolor="#d1d1d1"
     showgrid="false"
     inkscape:zoom="10.094907"
     inkscape:cx="26.696631"
     inkscape:cy="14.462739"
     inkscape:window-width="1920"
     inkscape:window-height="1011"
     inkscape:window-x="0"
     inkscape:window-y="0"
     inkscape:window-maximized="1"
     inkscape:current-layer="svg522" />
  <circle
     style="fill:#ffffff;stroke-width:4"
     id="path697"
     cx="16"
     cy="16"
     r="16" />
  <path
     d="M 13.73523,6 C 12.378555,6.7658641 10.124726,7.6411378 8.0459518,8.2975929 L 7.0393872,7.9256018 V 23.964988 H 8.6805248 V 22.083152 H 14.873085 V 20.507658 H 8.6805248 V 15.190371 H 14.763676 V 13.592998 H 8.6805248 V 9.6761491 C 10.912472,9.0196941 13.319475,8.1881838 15.135667,7.356674 Z m 2.494528,1.4879649 V 26 h 1.66302 V 9.1291032 h 5.404815 V 20.52954 c 0,0.328228 -0.08752,0.437638 -0.437636,0.459518 -0.371993,0 -1.597374,0 -2.910285,-0.04376 0.26258,0.481402 0.547047,1.26915 0.634572,1.77243 1.641138,0 2.778994,-0.04376 3.479214,-0.35011 0.700218,-0.284462 0.897155,-0.875273 0.897155,-1.81619 V 7.4879649 Z"
     fill="#222222"
     style="fill:#000000;fill-opacity:1;stroke-width:0.227936"
     id="path520" />
</svg>
