<?xml version="1.0" encoding="UTF-8" standalone="no"?>
<svg
   height="32"
   viewBox="0 0 32 32"
   width="32"
   version="1.1"
   id="svg4"
   sodipodi:docname="snapshot.svg"
   inkscape:version="1.2.1 (9c6d41e410, 2022-07-14, custom)"
   xmlns:inkscape="http://www.inkscape.org/namespaces/inkscape"
   xmlns:sodipodi="http://sodipodi.sourceforge.net/DTD/sodipodi-0.dtd"
   xmlns="http://www.w3.org/2000/svg"
   xmlns:svg="http://www.w3.org/2000/svg">
  <defs
     id="defs8" />
  <sodipodi:namedview
     id="namedview6"
     pagecolor="#ffffff"
     bordercolor="#000000"
     borderopacity="0.25"
     inkscape:showpageshadow="2"
     inkscape:pageopacity="0.0"
     inkscape:pagecheckerboard="0"
     inkscape:deskcolor="#d1d1d1"
     showgrid="false"
     inkscape:zoom="13.40625"
     inkscape:cx="28.606061"
     inkscape:cy="32"
     inkscape:window-width="1920"
     inkscape:window-height="1011"
     inkscape:window-x="0"
     inkscape:window-y="0"
     inkscape:window-maximized="1"
     inkscape:current-layer="g6571" />
  <g
     id="g6571"
     transform="scale(4)">
    <circle
       style="fill:#ffffff;fill-opacity:1;stroke-width:0.5;stroke-dasharray:none"
       id="path8389"
       cx="4"
       cy="4"
       r="4" />
    <path
       d="M 4,2 C 3.475586,2 2.972656,2.206055 2.598633,2.573242 L 3.27832,3.75 4.276367,2.021484 C 4.18457,2.007812 4.092773,2.000976 4,2 Z M 4.53418,2.0752 3.855469,3.25 h 1.99707 C 5.61914,2.674805 5.132812,2.240234 4.53418,2.075195 Z M 2.424805,2.771489 C 2.15039,3.12207 2.000977,3.554687 2,4 2,4.168945 2.02246,4.336914 2.06543,4.5 H 3.422852 Z M 4.577148,3.5 5.575195,5.228515 C 5.849609,4.87793 5.999023,4.445312 6,4 6,3.831055 5.97754,3.663086 5.93457,3.5 Z M 4.72168,4.25 3.723633,5.978515 C 3.815433,5.992187 3.907226,5.999023 4,6 4.524414,6 5.027344,5.793946 5.401367,5.425782 Z M 2.147461,4.75 C 2.380859,5.325195 2.867187,5.759765 3.46582,5.924805 L 4.144531,4.75 Z m 0,0"
       fill="#222222"
       id="path8380"
       style="stroke-width:0.25" />
  </g>
</svg>
